<?xml version="1.0" standalone="no"?>
<!DOCTYPE svg PUBLIC "-//W3C//DTD SVG 20010904//EN"
 "http://www.w3.org/TR/2001/REC-SVG-20010904/DTD/svg10.dtd">
<svg version="1.0" xmlns="http://www.w3.org/2000/svg"
 width="312.000000pt" height="150.000000pt" viewBox="0 0 312.000000 150.000000"
 preserveAspectRatio="xMidYMid meet">

<g transform="translate(0.000000,150.000000) scale(0.100000,-0.100000)"
fill="#000000" stroke="none">
<path d="M408 1113 l-46 -226 1212 4 1211 4 42 205 c23 113 42 213 43 223 0
16 -64 17 -1209 17 l-1208 0 -45 -227z"/>
<path d="M265 443 c-21 -109 -41 -208 -43 -220 l-4 -23 1211 0 c666 0 1211 2
1211 5 0 3 18 94 40 201 22 108 40 204 40 215 0 19 -24 19 -1208 19 l-1208 0
-39 -197z"/>
</g>
</svg>
