<svg width="248" height="42" viewBox="0 0 248 42" fill="none" xmlns="http://www.w3.org/2000/svg">
<path d="M98.135 24.2453C98.135 23.7446 98.0562 23.2952 97.8986 22.8971C97.7541 22.4862 97.4783 22.1139 97.0711 21.78C96.664 21.4333 96.0927 21.0931 95.3572 20.7593C94.6217 20.4254 93.6695 20.0787 92.5005 19.7192C91.2003 19.3083 89.9657 18.8461 88.7968 18.3325C87.641 17.8189 86.6166 17.2218 85.7235 16.5413C84.8435 15.8479 84.1474 15.0454 83.6352 14.1338C83.1361 13.2222 82.8865 12.1629 82.8865 10.9559C82.8865 9.78746 83.1492 8.72816 83.6746 7.778C84.1999 6.815 84.9354 5.99324 85.8811 5.31272C86.8267 4.61936 87.9431 4.0865 89.2302 3.71414C90.5305 3.34178 91.9555 3.1556 93.5053 3.1556C95.6198 3.1556 97.4652 3.52796 99.0412 4.27268C100.617 5.0174 101.839 6.03818 102.706 7.33502C103.586 8.63186 104.026 10.1149 104.026 11.7841H98.1547C98.1547 10.9623 97.9774 10.2433 97.6228 9.62696C97.2813 8.9978 96.7559 8.50346 96.0467 8.14394C95.3506 7.78442 94.4706 7.60466 93.4068 7.60466C92.3823 7.60466 91.5286 7.75874 90.8457 8.0669C90.1627 8.36222 89.6505 8.76668 89.309 9.28028C88.9675 9.78104 88.7968 10.346 88.7968 10.9752C88.7968 11.4502 88.915 11.8804 89.1514 12.2656C89.4009 12.6508 89.7687 13.0103 90.2547 13.3441C90.7406 13.678 91.3382 13.9926 92.0474 14.2879C92.7567 14.5832 93.5775 14.8721 94.51 15.1546C96.073 15.6168 97.4455 16.1368 98.6275 16.7146C99.8227 17.2924 100.821 17.9409 101.622 18.6599C102.423 19.379 103.027 20.1943 103.435 21.1059C103.842 22.0176 104.045 23.0512 104.045 24.2068C104.045 25.4266 103.802 26.518 103.316 27.481C102.83 28.444 102.128 29.2593 101.208 29.927C100.289 30.5947 99.1923 31.1019 97.9183 31.4486C96.6443 31.7952 95.2193 31.9686 93.6432 31.9686C92.2247 31.9686 90.826 31.7888 89.4469 31.4293C88.0679 31.0569 86.8136 30.4984 85.6841 29.7537C84.5677 29.009 83.6746 28.0588 83.0047 26.9032C82.3349 25.7476 82 24.3801 82 22.8008H87.93C87.93 23.6739 88.0679 24.4122 88.3437 25.0157C88.6195 25.6192 89.0069 26.1071 89.506 26.4795C90.0182 26.8518 90.6224 27.1215 91.3185 27.2884C92.0277 27.4553 92.8026 27.5388 93.6432 27.5388C94.6676 27.5388 95.5082 27.3975 96.1649 27.1151C96.8347 26.8326 97.3273 26.441 97.6425 25.9402C97.9708 25.4394 98.135 24.8745 98.135 24.2453Z" fill="#8C8A97"/>
<path d="M114.034 29.2337L119.688 10.744H125.775L117.205 34.7228C117.022 35.2492 116.772 35.8142 116.457 36.4176C116.155 37.0211 115.741 37.5925 115.216 38.1318C114.703 38.6839 114.053 39.1333 113.265 39.48C112.49 39.8267 111.538 40 110.409 40C109.87 40 109.43 39.9679 109.089 39.9037C108.747 39.8395 108.34 39.7496 107.867 39.6341V35.5702C108.012 35.5702 108.163 35.5702 108.32 35.5702C108.478 35.583 108.629 35.5895 108.773 35.5895C109.522 35.5895 110.133 35.506 110.606 35.3391C111.078 35.1722 111.459 34.9154 111.748 34.5687C112.037 34.2348 112.267 33.7983 112.438 33.259L114.034 29.2337ZM111.669 10.744L116.299 25.8439L117.107 31.7182L113.246 32.1227L105.582 10.744H111.669Z" fill="#8C8A97"/>
<path d="M133.596 15.1931V31.5834H127.923V10.744H133.242L133.596 15.1931ZM132.769 20.4318H131.232C131.232 18.891 131.436 17.5043 131.843 16.2717C132.25 15.0262 132.822 13.9669 133.557 13.0938C134.293 12.2078 135.166 11.5337 136.177 11.0715C137.202 10.5964 138.344 10.3588 139.605 10.3588C140.603 10.3588 141.516 10.5001 142.344 10.7826C143.171 11.065 143.88 11.5144 144.471 12.1308C145.076 12.7471 145.535 13.5624 145.85 14.5768C146.179 15.5911 146.343 16.8302 146.343 18.294V31.5834H140.63V18.2747C140.63 17.3502 140.498 16.6312 140.236 16.1176C139.973 15.604 139.586 15.2445 139.073 15.039C138.574 14.8207 137.957 14.7116 137.221 14.7116C136.46 14.7116 135.796 14.8593 135.232 15.1546C134.68 15.4499 134.22 15.8608 133.853 16.3872C133.498 16.9008 133.229 17.5043 133.045 18.1977C132.861 18.891 132.769 19.6357 132.769 20.4318Z" fill="#8C8A97"/>
<path d="M159.464 27.6351C160.16 27.6351 160.777 27.5067 161.316 27.2499C161.854 26.9802 162.274 26.6079 162.576 26.1328C162.892 25.6449 163.056 25.0735 163.069 24.4187H168.408C168.395 25.8824 167.994 27.1857 167.206 28.3284C166.418 29.4584 165.361 30.3507 164.034 31.0056C162.708 31.6476 161.224 31.9686 159.582 31.9686C157.927 31.9686 156.482 31.6989 155.248 31.1597C154.026 30.6204 153.008 29.8757 152.194 28.9255C151.38 27.9625 150.769 26.8454 150.362 25.5743C149.955 24.2903 149.751 22.9164 149.751 21.4526V20.8941C149.751 19.4175 149.955 18.0436 150.362 16.7724C150.769 15.4884 151.38 14.3713 152.194 13.4212C153.008 12.4582 154.026 11.707 155.248 11.1678C156.469 10.6285 157.901 10.3588 159.543 10.3588C161.289 10.3588 162.819 10.6863 164.133 11.3411C165.459 11.9959 166.497 12.9333 167.246 14.1531C168.007 15.36 168.395 16.7917 168.408 18.448H163.069C163.056 17.7547 162.905 17.1255 162.616 16.5606C162.34 15.9956 161.933 15.5462 161.394 15.2124C160.869 14.8657 160.219 14.6923 159.444 14.6923C158.617 14.6923 157.94 14.8657 157.415 15.2124C156.889 15.5462 156.482 16.0084 156.193 16.5991C155.904 17.1769 155.701 17.8381 155.583 18.5829C155.478 19.3147 155.425 20.0851 155.425 20.8941V21.4526C155.425 22.2615 155.478 23.0384 155.583 23.7831C155.688 24.5278 155.885 25.1891 156.174 25.7669C156.476 26.3447 156.889 26.8005 157.415 27.1343C157.94 27.4682 158.623 27.6351 159.464 27.6351Z" fill="#8C8A97"/>
<path d="M177.234 2V31.5834H171.56V2H177.234ZM176.426 20.4318H174.87C174.883 18.9809 175.08 17.6455 175.461 16.4257C175.842 15.1931 176.387 14.1274 177.096 13.2286C177.805 12.3169 178.652 11.6107 179.637 11.11C180.636 10.6092 181.739 10.3588 182.947 10.3588C183.998 10.3588 184.95 10.5065 185.804 10.8018C186.671 11.0843 187.413 11.5465 188.03 12.1885C188.66 12.8177 189.146 13.6459 189.488 14.6731C189.829 15.7003 190 16.9458 190 18.4095V31.5834H184.287V18.371C184.287 17.4465 184.149 16.7211 183.873 16.1946C183.61 15.6553 183.223 15.2766 182.711 15.0583C182.212 14.8272 181.594 14.7116 180.859 14.7116C180.045 14.7116 179.348 14.8593 178.771 15.1546C178.206 15.4499 177.753 15.8608 177.411 16.3872C177.07 16.9008 176.82 17.5043 176.663 18.1977C176.505 18.891 176.426 19.6357 176.426 20.4318Z" fill="#8C8A97"/>
<path d="M17.3464 22.1308H23.1871C23.0699 24.0536 22.5424 25.7606 21.6048 27.2518C20.6802 28.743 19.3844 29.9071 17.7175 30.7443C16.0636 31.5814 14.0711 32 11.74 32C9.91685 32 8.28249 31.6861 6.83696 31.0582C5.39143 30.4173 4.15427 29.5016 3.12547 28.3113C2.10969 27.121 1.33484 25.6821 0.800902 23.9948C0.266967 22.3074 0 20.4173 0 18.3244V16.3427C0 14.2498 0.273479 12.3597 0.820436 10.6723C1.38042 8.97188 2.17481 7.52649 3.20361 6.33617C4.24543 5.14585 5.48911 4.23022 6.93464 3.58927C8.38017 2.94833 9.99499 2.62786 11.7791 2.62786C14.1493 2.62786 16.1483 3.05952 17.7761 3.92283C19.417 4.78613 20.6867 5.97645 21.5853 7.49379C22.4969 9.01112 23.0438 10.7377 23.2261 12.6736H17.3659C17.3008 11.5226 17.0729 10.5481 16.6822 9.75016C16.2915 8.93918 15.699 8.33094 14.9046 7.92544C14.1232 7.50687 13.0814 7.29758 11.7791 7.29758C10.8024 7.29758 9.94941 7.48071 9.22013 7.84696C8.49086 8.21321 7.87879 8.76913 7.38392 9.51472C6.88906 10.2603 6.51791 11.2021 6.27047 12.3401C6.03606 13.465 5.91886 14.7861 5.91886 16.3035V18.3244C5.91886 19.8025 6.02955 21.104 6.25094 22.2289C6.47233 23.3407 6.81092 24.2825 7.26672 25.0543C7.73554 25.8129 8.33459 26.3885 9.06386 26.7809C9.80616 27.1602 10.6982 27.3499 11.74 27.3499C12.9642 27.3499 13.9735 27.1537 14.7678 26.7613C15.5622 26.3689 16.1678 25.7868 16.5845 25.015C17.0143 24.2433 17.2682 23.2819 17.3464 22.1308Z" fill="#FBAB34"/>
<path d="M25.7851 21.2086V20.7966C25.7851 19.24 26.0065 17.8077 26.4493 16.4997C26.8921 15.1785 27.5367 14.034 28.3832 13.0661C29.2297 12.0981 30.2715 11.346 31.5086 10.8097C32.7458 10.2603 34.1653 9.98561 35.7671 9.98561C37.3689 9.98561 38.7949 10.2603 40.0451 10.8097C41.2953 11.346 42.3436 12.0981 43.1901 13.0661C44.0496 14.034 44.7007 15.1785 45.1435 16.4997C45.5863 17.8077 45.8077 19.24 45.8077 20.7966V21.2086C45.8077 22.7521 45.5863 24.1844 45.1435 25.5056C44.7007 26.8136 44.0496 27.9581 43.1901 28.9392C42.3436 29.9071 41.3018 30.6593 40.0646 31.1956C38.8274 31.7318 37.408 32 35.8062 32C34.2044 32 32.7784 31.7318 31.5282 31.1956C30.291 30.6593 29.2427 29.9071 28.3832 28.9392C27.5367 27.9581 26.8921 26.8136 26.4493 25.5056C26.0065 24.1844 25.7851 22.7521 25.7851 21.2086ZM31.411 20.7966V21.2086C31.411 22.0981 31.4891 22.9287 31.6454 23.7005C31.8017 24.4722 32.0491 25.1524 32.3877 25.741C32.7393 26.3165 33.1951 26.7678 33.7551 27.0948C34.315 27.4218 34.9987 27.5853 35.8062 27.5853C36.5875 27.5853 37.2582 27.4218 37.8182 27.0948C38.3782 26.7678 38.8274 26.3165 39.166 25.741C39.5046 25.1524 39.7521 24.4722 39.9083 23.7005C40.0776 22.9287 40.1623 22.0981 40.1623 21.2086V20.7966C40.1623 19.9333 40.0776 19.1223 39.9083 18.3636C39.7521 17.5919 39.4981 16.9117 39.1465 16.3231C38.8079 15.7214 38.3586 15.2505 37.7986 14.9104C37.2387 14.5703 36.5615 14.4003 35.7671 14.4003C34.9727 14.4003 34.2955 14.5703 33.7355 14.9104C33.1886 15.2505 32.7393 15.7214 32.3877 16.3231C32.0491 16.9117 31.8017 17.5919 31.6454 18.3636C31.4891 19.1223 31.411 19.9333 31.411 20.7966Z" fill="#FBAB34"/>
<path d="M55.2036 10.378V31.6076H49.5582V10.378H55.2036ZM49.2066 4.845C49.2066 4.02093 49.4931 3.34075 50.0661 2.80445C50.6391 2.26815 51.4075 2 52.3711 2C53.3218 2 54.0836 2.26815 54.6566 2.80445C55.2427 3.34075 55.5357 4.02093 55.5357 4.845C55.5357 5.66906 55.2427 6.34925 54.6566 6.88555C54.0836 7.42184 53.3218 7.68999 52.3711 7.68999C51.4075 7.68999 50.6391 7.42184 50.0661 6.88555C49.4931 6.34925 49.2066 5.66906 49.2066 4.845Z" fill="#FBAB34"/>
<path d="M65.3614 14.9104V31.6076H59.7355V10.378H65.0098L65.3614 14.9104ZM64.5409 20.2472H63.0173C63.0173 18.6776 63.2191 17.2649 63.6228 16.0092C64.0265 14.7404 64.593 13.6612 65.3223 12.7717C66.0516 11.8692 66.9176 11.1825 67.9204 10.7116C68.9361 10.2276 70.0691 9.98561 71.3193 9.98561C72.309 9.98561 73.2141 10.1295 74.0346 10.4173C74.855 10.705 75.5582 11.1629 76.1442 11.7907C76.7433 12.4186 77.1991 13.2492 77.5116 14.2825C77.8372 15.3159 78 16.5782 78 18.0693V31.6076H72.3351V18.0497C72.3351 17.1079 72.2049 16.3754 71.9444 15.8522C71.6839 15.329 71.2998 14.9627 70.7919 14.7534C70.297 14.5311 69.6849 14.4199 68.9557 14.4199C68.2003 14.4199 67.5427 14.5703 66.9827 14.8712C66.4358 15.172 65.98 15.5906 65.6153 16.1269C65.2637 16.6501 64.9967 17.2649 64.8144 17.9712C64.6321 18.6776 64.5409 19.4362 64.5409 20.2472Z" fill="#FBAB34"/>
<path fill-rule="evenodd" clip-rule="evenodd" d="M239.565 8.43526C232.625 1.49594 221.375 1.49594 214.435 8.43527C207.496 15.3745 207.496 26.6254 214.435 33.5647C221.375 40.5041 232.625 40.5041 239.565 33.5647C246.504 26.6257 246.504 15.3754 239.565 8.43601L239.565 8.43526ZM241.849 6.15077C250.05 14.3518 250.05 27.6483 241.849 35.8492C233.648 44.0503 220.352 44.0503 212.151 35.8492C203.95 27.6482 203.95 14.3517 212.151 6.15076C220.352 -2.05025 233.648 -2.05026 241.849 6.15077ZM224.826 16.4186C224.493 17.1594 224.308 17.9812 224.308 18.8462C224.308 22.1174 226.959 24.7693 230.231 24.7693C230.265 24.7693 230.3 24.769 230.334 24.7684C230.44 24.753 230.548 24.7481 230.656 24.7542C233.73 24.5362 236.154 21.9746 236.154 18.8462C236.154 15.5746 233.504 12.9231 230.231 12.9231C227.888 12.9231 225.864 14.2827 224.903 16.2558C224.88 16.3116 224.855 16.366 224.826 16.4186ZM221.127 17.8781C219.181 18.8437 217.846 20.8414 217.846 23.1539C217.846 26.4251 220.498 29.077 223.769 29.077C225.246 29.077 226.594 28.531 227.63 27.6254C223.841 26.5049 221.077 22.9984 221.077 18.8462C221.077 18.5192 221.094 18.1962 221.127 17.8781ZM231.569 27.903C229.969 30.5304 227.091 32.3077 223.769 32.3077C218.714 32.3077 214.615 28.2094 214.615 23.1539C214.615 18.5661 217.995 14.8034 222.381 14.1352C223.981 11.4732 226.898 9.69233 230.231 9.69233C235.289 9.69233 239.385 13.7909 239.385 18.8462C239.385 23.4471 235.992 27.2557 231.569 27.903Z" fill="#FBAB34"/>
</svg>
